<?xml version="1.0" encoding="UTF-8"?>
<svg version="1.1" xmlns="http://www.w3.org/2000/svg" width="96" height="96">
<path d="M0 0 C1.2953215 -0.01283524 2.59064301 -0.02567047 3.92521667 -0.03889465 C5.34247453 -0.04706418 6.75973673 -0.0545075 8.17700195 -0.0612793 C9.25012099 -0.06739259 9.25012099 -0.06739259 10.3449192 -0.07362938 C14.13424005 -0.0944786 17.92352486 -0.10878322 21.71289062 -0.11816406 C25.61224415 -0.12920465 29.51102327 -0.1635798 33.41017437 -0.20333576 C36.42064924 -0.22958271 39.43098917 -0.23786317 42.44156837 -0.24144554 C43.87798743 -0.24629352 45.31440118 -0.25785622 46.75070763 -0.27648354 C54.81175496 -0.37449842 60.89302895 -0.33198636 67.7277832 4.17700195 C69.78637695 6.2121582 69.78637695 6.2121582 71.1652832 8.23950195 C71.63836914 8.91110352 72.11145508 9.58270508 72.59887695 10.2746582 C74.82104737 14.01928448 74.86802427 17.18583946 74.90478516 21.44921875 C74.92403801 23.392201 74.92403801 23.392201 74.94367981 25.37443542 C74.95184934 26.79169328 74.95929266 28.20895548 74.96606445 29.6262207 C74.97013998 30.3416334 74.97421551 31.05704609 74.97841454 31.79413795 C74.99926376 35.5834588 75.01356838 39.37274361 75.02294922 43.16210938 C75.03398981 47.0614629 75.06836496 50.96024202 75.10812092 54.85939312 C75.13436786 57.86986799 75.14264832 60.88020792 75.1462307 63.89078712 C75.15107868 65.32720618 75.16264138 66.76361993 75.18126869 68.19992638 C75.27928357 76.26097371 75.23677152 82.3422477 70.7277832 89.17700195 C68.69262695 91.2355957 68.69262695 91.2355957 66.6652832 92.61450195 C65.99368164 93.08758789 65.32208008 93.56067383 64.63012695 94.0480957 C60.88550067 96.27026612 57.7189457 96.31724302 53.45556641 96.35400391 C52.1602449 96.36683914 50.8649234 96.37967438 49.53034973 96.39289856 C48.11309188 96.40106809 46.69582968 96.40851141 45.27856445 96.4152832 C44.56315176 96.41935873 43.84773907 96.42343426 43.1106472 96.42763329 C39.32132635 96.44848251 35.53204155 96.46278713 31.74267578 96.47216797 C27.84332226 96.48320856 23.94454314 96.51758371 20.04539204 96.55733967 C17.03491716 96.58358661 14.02457724 96.59186707 11.01399803 96.59544945 C9.57757898 96.60029743 8.14116523 96.61186013 6.70485878 96.63048744 C-1.35618855 96.72850232 -7.43746255 96.68599027 -14.2722168 92.17700195 C-16.33081055 90.1418457 -16.33081055 90.1418457 -17.7097168 88.11450195 C-18.4193457 87.10709961 -18.4193457 87.10709961 -19.14331055 86.0793457 C-21.36548097 82.33471942 -21.41245786 79.16816445 -21.44921875 74.90478516 C-21.46205399 73.60946365 -21.47488922 72.31414215 -21.4881134 70.97956848 C-21.49628293 69.56231063 -21.50372625 68.14504843 -21.51049805 66.7277832 C-21.51457357 66.01237051 -21.5186491 65.29695782 -21.52284813 64.55986595 C-21.54369735 60.7705451 -21.55800197 56.9812603 -21.56738281 53.19189453 C-21.5784234 49.29254101 -21.61279855 45.39376189 -21.65255451 41.49461079 C-21.67880146 38.48413591 -21.68708192 35.47379599 -21.69066429 32.46321678 C-21.69551227 31.02679773 -21.70707497 29.59038398 -21.72570229 28.15407753 C-21.82371717 20.0930302 -21.78120511 14.0117562 -17.2722168 7.17700195 C-15.23706055 5.1184082 -15.23706055 5.1184082 -13.2097168 3.73950195 C-12.53811523 3.26641602 -11.86651367 2.79333008 -11.17456055 2.3059082 C-7.42993427 0.08373778 -4.26337929 0.03676089 0 0 Z " fill="#5E17EA" transform="translate(21.272216796875,-0.177001953125)"/>
<path d="M0 0 C0.66 0 1.32 0 2 0 C2 11.88 2 23.76 2 36 C-2.29 36 -6.58 36 -11 36 C-11 31.71 -11 27.42 -11 23 C-12.32 22.34 -13.64 21.68 -15 21 C-16.703125 19.5625 -16.703125 19.5625 -18.25 18 C-18.77078125 17.484375 -19.2915625 16.96875 -19.828125 16.4375 C-21 15 -21 15 -21 13 C-19.17993164 11.68725586 -19.17993164 11.68725586 -16.66015625 10.21484375 C-15.3134082 9.41916992 -15.3134082 9.41916992 -13.93945312 8.60742188 C-12.99005859 8.05634766 -12.04066406 7.50527344 -11.0625 6.9375 C-9.19857679 5.84354098 -7.33526219 4.74854409 -5.47265625 3.65234375 C-4.64000244 3.16757568 -3.80734863 2.68280762 -2.94946289 2.18334961 C-1.06727364 1.14645535 -1.06727364 1.14645535 0 0 Z " fill="#F5F1FC" transform="translate(70,31)"/>
<path d="M0 0 C3.40029781 1.36011912 6.13235991 2.55209216 9.20703125 4.3828125 C9.95791016 4.82753906 10.70878906 5.27226563 11.48242188 5.73046875 C12.63581055 6.42076172 12.63581055 6.42076172 13.8125 7.125 C14.60076172 7.59292969 15.38902344 8.06085937 16.20117188 8.54296875 C18.13602454 9.69215397 20.06887228 10.84457003 22 12 C20.51209731 15.17159273 19.17030555 16.80919137 16.4375 19 C12.99334221 22.2655189 12.42744081 24.74303413 12.0625 29.4375 C12.041875 31.273125 12.02125 33.10875 12 35 C8.04 35 4.08 35 0 35 C0 23.45 0 11.9 0 0 Z " fill="#FBF9FD" transform="translate(25,32)"/>
</svg>
